<svg viewBox="0 0 500 500" xmlns="http://www.w3.org/2000/svg" xmlns:bx="https://boxy-svg.com">
  <defs>
    <filter id="drop-shadow-filter-0" color-interpolation-filters="sRGB" x="-500%" y="-500%" width="1000%" height="1000%" bx:preset="drop-shadow 1 10 10 0 0.5 rgba(0,0,0,0.3)">
      <feGaussianBlur in="SourceAlpha" stdDeviation="0"></feGaussianBlur>
      <feOffset dx="10" dy="10"></feOffset>
      <feComponentTransfer result="offsetblur">
        <feFuncA id="spread-ctrl" type="linear" slope="1"></feFuncA>
      </feComponentTransfer>
      <feFlood flood-color="rgba(0,0,0,0.3)"></feFlood>
      <feComposite in2="offsetblur" operator="in"></feComposite>
      <feMerge>
        <feMergeNode></feMergeNode>
        <feMergeNode in="SourceGraphic"></feMergeNode>
      </feMerge>
    </filter>
  </defs>
  <g transform="matrix(1.168146, 0, 0, 1.168118, -32.683197, 42.578228)" style="filter: url(#drop-shadow-filter-0);">
    <path opacity="1.000000" d="M 297.448 92.681 C 300.51 93.785 302.236 95.945 303.36 98.732 C 304.022 100.375 304.862 101.946 305.622 103.549 C 307.848 108.248 306.566 112.318 301.974 114.757 C 291.724 120.201 281.448 125.592 271.182 131.005 C 266.11 133.68 261.059 136.398 255.957 139.014 C 252.892 140.585 251.428 143.016 251.458 146.419 C 251.474 148.194 251.605 149.986 251.421 151.742 C 251.214 153.72 252.236 154.229 253.877 154.395 C 261.847 155.198 269.641 156.883 277.242 159.38 C 291.325 164.005 304.124 170.797 314.259 181.911 C 320.371 188.615 324.6 196.313 326.003 205.366 C 326.302 207.294 327.558 206.957 328.713 206.954 C 333.728 206.945 337.733 208.794 340.455 213.13 C 341.655 215.04 342.197 217.166 342.217 219.361 C 342.277 225.843 342.601 232.336 342.039 238.807 C 341.589 243.982 337.949 248.202 332.875 249.357 C 330.962 249.792 330.269 250.554 330.066 252.569 C 329.17 261.451 328.539 269.492 327.997 279.176 C 327.505 287.955 327.515 308.788 327.333 308.97 C 320.58 315.743 316.634 319.796 316.635 319.776 C 317.078 308.637 318.978 253.297 318.785 253.303 C 289.708 254.263 156.503 252.308 156.534 252.884 C 157.889 277.952 161.352 308.748 161.111 308.52 C 152.709 300.563 168.057 315.394 151.044 298.633 C 150.931 298.522 148.577 277.869 147.895 268.728 C 147.459 262.882 146.524 257.084 145.875 251.258 C 145.765 250.263 145.27 249.937 144.351 249.686 C 137.012 247.686 133.976 243.666 133.974 236.074 C 133.973 230.61 133.962 225.147 133.974 219.683 C 133.992 212.48 139.225 207.123 146.449 206.982 C 150.541 206.903 149.634 207.047 150.375 203.62 C 152.87 192.083 159.394 183.115 168.273 175.713 C 180.851 165.229 195.582 159.394 211.437 156.063 C 215.511 155.207 219.62 154.511 223.759 154.178 C 225.745 154.019 226.136 153.097 226.128 151.452 C 226.11 147.562 226.147 143.672 226.151 139.783 C 226.16 131.923 229.778 126.196 236.615 122.546 C 255.223 112.609 273.874 102.752 292.613 92.772 C 294.232 92.681 295.745 92.681 297.448 92.681 M 176.53 206.978 C 182.745 206.977 188.959 206.975 195.174 206.975 C 235.533 206.974 275.892 206.974 316.252 206.971 C 319.572 206.971 319.646 206.875 318.817 203.601 C 317.347 197.803 314.537 192.694 310.737 188.118 C 303.311 179.175 293.799 173.107 283.198 168.745 C 260.981 159.601 237.975 157.97 214.492 162.305 C 199.313 165.107 185.207 170.579 173.13 180.466 C 165.413 186.783 159.447 194.367 157.128 204.347 C 156.555 206.817 156.646 206.961 159.116 206.97 C 164.784 206.987 170.452 206.977 176.53 206.978 M 284.727 213.711 C 238.98 213.711 193.235 213.71 147.489 213.715 C 142.862 213.715 140.699 215.861 140.683 220.452 C 140.667 225.778 140.666 231.104 140.683 236.43 C 140.699 241.071 142.661 243.074 147.259 243.075 C 207.753 243.084 268.248 243.085 328.742 243.078 C 333.386 243.078 335.585 240.835 335.601 236.137 C 335.618 231.084 335.614 226.032 335.6 220.979 C 335.586 215.932 333.371 213.714 328.356 213.712 C 313.949 213.707 299.543 213.711 284.727 213.711 M 283.689 105.186 C 269.208 112.848 254.746 120.546 240.235 128.152 C 235.898 130.426 233.144 133.812 232.785 138.672 C 232.459 143.087 232.669 147.541 232.641 151.978 C 232.632 153.247 233.483 153.359 234.448 153.348 C 237.314 153.315 240.184 153.194 243.04 153.567 C 244.267 153.727 244.798 153.191 244.775 151.952 C 244.739 150.04 244.749 148.127 244.785 146.216 C 244.895 140.512 247.168 136.06 252.347 133.334 C 260.865 128.849 269.393 124.384 277.91 119.897 C 284.735 116.302 291.534 112.656 298.382 109.106 C 299.858 108.341 300.222 107.496 299.446 106.026 C 298.554 104.337 297.707 102.618 296.956 100.862 C 296.236 99.175 295.234 99.027 293.723 99.86 C 290.496 101.639 287.22 103.33 283.689 105.186" style="stroke-width: 6.22258px; vector-effect: non-scaling-stroke; stroke: rgb(255, 0, 255); fill: rgb(255, 0, 255);"></path>
    <path opacity="1.000000" d="M 340.92 166.129 C 332.417 168.005 323.862 168.875 316.007 172.456 C 310.036 175.178 304.672 178.665 301.3 184.556 C 300.835 185.369 300.265 185.998 299.221 185.827 C 298.168 185.654 297.882 184.869 297.697 183.946 C 297.015 180.534 296.987 177.129 297.86 173.759 C 299.455 167.596 303.821 164.579 309.792 163.513 C 314.018 162.758 314.157 162.8 313.928 158.581 C 313.665 153.728 315.116 149.508 317.88 145.593 C 320.639 141.685 323.447 137.793 325.721 133.576 C 328.663 128.119 331.041 122.499 329.814 116.036 C 329.501 114.387 330.285 113.421 332.018 113.39 C 333.806 113.358 334.696 114.302 334.63 116.051 C 334.341 123.597 333.142 130.913 329.664 137.762 C 327.362 142.297 324.76 146.732 323.665 151.792 C 323.532 152.412 323.418 153.045 323.39 153.676 C 323.257 156.634 323.747 157.253 326.605 156.772 C 336.543 155.102 345.69 151.687 352.927 144.279 C 354.439 142.731 355.77 141.05 356.92 139.218 C 357.585 138.16 358.207 136.625 359.785 137.46 C 361.482 138.358 360.526 139.813 359.982 141.019 C 358.084 145.233 355.742 149.188 352.938 152.947 C 357.552 149.303 363.185 148.35 368.589 146.825 C 372.825 145.63 376.952 144.184 380.78 141.983 C 383.189 140.597 385.142 138.8 386.118 136.086 C 386.439 135.195 386.881 134.309 387.44 133.547 C 391.931 127.419 392.51 120.67 390.802 113.498 C 390.112 110.595 390.977 109.619 393.659 109.888 C 394.895 110.011 395.496 110.646 395.734 111.807 C 396.711 116.584 397.372 121.383 396.867 126.274 C 396.835 126.589 396.678 126.904 396.696 127.211 C 396.757 128.256 396.01 129.67 397.371 130.194 C 398.511 130.632 399.141 129.41 399.809 128.648 C 403.059 124.942 405.645 120.914 406.578 115.938 C 407.009 113.64 406.628 111.516 406.047 109.351 C 404.738 104.485 402.666 99.9 400.843 95.225 C 399.229 91.086 398.421 86.787 398.367 82.386 C 398.314 78.067 397.156 74.226 394.438 70.861 C 393.726 69.98 392.893 68.976 393.791 67.881 C 394.784 66.671 395.994 67.406 397.034 67.985 C 401.205 70.303 403.518 74.006 404.695 78.504 C 405.986 83.436 407.285 88.367 409.044 93.159 C 410.203 96.318 411.603 99.357 413.83 101.932 C 417.475 106.148 420.692 106.092 423.963 101.593 C 428.176 95.796 430.129 89.057 431.695 82.185 C 431.784 81.798 431.79 81.391 431.888 81.007 C 432.163 79.936 432.627 78.962 433.949 79.134 C 435.13 79.287 435.316 80.238 435.418 81.269 C 436.02 87.309 435.296 93.192 433.341 98.923 C 432.227 102.188 430.622 105.214 428.651 108.043 C 428.015 108.957 427.515 109.783 428.697 110.699 C 430.498 112.094 430.293 113.845 429.384 115.636 C 427.993 118.379 425.92 120.62 423.778 122.75 C 417.676 128.818 411.215 134.518 405.762 141.24 C 402.952 144.704 399.068 146.928 394.913 148.46 C 377.196 154.99 359.511 161.623 340.92 166.129 Z" style="stroke-width: 6.22258px; stroke: rgb(255, 0, 255); fill: rgb(255, 0, 255);" transform="matrix(0.866025, -0.500004, 0.499996, 0.866025, -14.180777, 200.159474)"></path>
    <path opacity="1.000000" d="M 89.752 105.408 C 93.876 104.908 94.345 105.415 93.522 109.35 C 92.102 116.132 93.35 122.169 96.499 128.537 C 100.146 135.911 105.879 139.333 113.114 141.44 C 115.653 142.18 118.17 143.022 120.742 143.622 C 124.708 144.544 128.322 146.179 131.736 148.452 C 129.39 145.169 127.207 141.803 125.483 138.163 C 125.106 137.366 124.716 136.573 124.361 135.766 C 123.875 134.662 123.616 133.493 124.944 132.851 C 126.156 132.265 126.878 133.142 127.441 134.098 C 128.873 136.535 130.592 138.757 132.65 140.689 C 139.751 147.357 148.421 150.693 157.839 152.317 C 161.184 152.895 162.058 151.824 161.44 148.164 C 160.777 144.239 159.03 140.694 157.234 137.196 C 154.589 132.044 152.147 126.842 151.152 121.058 C 150.593 117.805 150.404 114.531 150.233 111.254 C 150.143 109.518 151.035 108.541 152.893 108.672 C 154.64 108.797 155.336 109.788 155.039 111.429 C 153.829 118.111 156.368 123.873 159.454 129.485 C 161.623 133.429 164.157 137.156 166.846 140.752 C 170.307 145.381 171.627 150.521 170.876 156.157 C 170.63 158.007 171.141 158.671 172.884 158.794 C 173.999 158.873 175.113 159.081 176.204 159.334 C 185.636 161.518 188.6 168.55 187.678 177.872 C 187.639 178.269 187.5 178.655 187.443 179.052 C 187.295 180.08 187.322 181.231 186.015 181.557 C 184.575 181.916 184.082 180.802 183.478 179.84 C 178.792 172.387 171.495 168.658 163.48 166.114 C 155.216 163.49 146.482 162.806 138.171 160.4 C 121.142 155.474 104.349 149.81 87.87 143.259 C 83.949 141.7 80.528 139.207 77.875 135.904 C 73.38 130.31 68.166 125.444 62.963 120.548 C 60.159 117.909 57.411 115.182 55.401 111.853 C 54.13 109.746 53.325 107.59 55.843 105.688 C 56.704 105.038 56.349 104.281 55.835 103.581 C 50.974 96.946 48.926 89.398 48.516 81.291 C 48.434 79.666 48.739 78.094 48.777 76.494 C 48.804 75.382 48.939 74.299 50.322 74.198 C 51.806 74.088 52.197 75.243 52.392 76.384 C 52.882 79.234 53.594 82.025 54.49 84.769 C 55.764 88.67 57.322 92.448 59.612 95.882 C 63.373 101.518 66.904 101.694 71.108 96.312 C 74.54 91.918 75.961 86.591 77.574 81.384 C 78.379 78.785 78.985 76.123 79.698 73.493 C 80.923 68.978 83.264 65.266 87.446 62.924 C 88.503 62.331 89.729 61.664 90.714 62.867 C 91.624 63.978 90.79 65.01 90.041 65.852 C 86.282 70.088 86.122 75.353 85.806 80.563 C 85.54 84.952 84.212 89.041 82.55 93.062 C 81.05 96.694 79.676 100.37 78.435 104.106 C 77.089 108.16 77.53 111.995 79.157 115.807 C 80.562 119.097 82.663 121.927 85.055 124.546 C 85.605 125.149 86.149 126.149 87.219 125.579 C 88.092 125.114 87.91 124.149 87.778 123.397 C 87.12 119.633 87.317 115.874 87.858 112.136 C 88.185 109.879 88.007 107.458 89.752 105.408 Z" style="stroke-width: 6.22258px; stroke: rgb(255, 0, 255); fill: rgb(255, 0, 255);" transform="matrix(0.866025, 0.500004, -0.499996, 0.866025, 76.786864, -42.752498)"></path>
  </g>
</svg>